<svg xmlns="http://www.w3.org/2000/svg" viewBox="0 0 48 48"><defs><style>.cls-1{fill:#424242;}.cls-2{fill:#42a5f5;}</style></defs><title>Global</title><g id="Global"><path class="cls-1" d="M35.33,30.36a12.93,12.93,0,0,0,0-12.72,1.2,1.2,0,0,0-.15-.24,13,13,0,0,0-22.36,0,1.2,1.2,0,0,0-.15.24,12.93,12.93,0,0,0,0,12.72,1.2,1.2,0,0,0,.15.24,13,13,0,0,0,22.36,0A1.2,1.2,0,0,0,35.33,30.36ZM21,31h6C25.32,36.29,22.68,36.31,21,31Zm-.51-2A25,25,0,0,1,20,25h8a25,25,0,0,1-.46,4ZM14.21,19h4.22A28.76,28.76,0,0,0,18,23h-5A11,11,0,0,1,14.21,19ZM27,17H21C22.68,11.71,25.32,11.69,27,17Zm.51,2A25,25,0,0,1,28,23H20a25,25,0,0,1,.46-4ZM35,23H30a28.76,28.76,0,0,0-.41-4h4.22A11,11,0,0,1,35,23Zm-21.9,2h5a28.76,28.76,0,0,0,.41,4H14.21A11,11,0,0,1,13.05,25ZM30,25h5a11,11,0,0,1-1.16,4H29.57A28.76,28.76,0,0,0,30,25Zm2.5-8H29.11a13.75,13.75,0,0,0-1.4-3.34A11,11,0,0,1,32.48,17ZM20.29,13.66A13.37,13.37,0,0,0,18.9,17H15.52A11,11,0,0,1,20.29,13.66ZM15.52,31H18.9a13.37,13.37,0,0,0,1.39,3.34A11,11,0,0,1,15.52,31Zm12.19,3.34A13.75,13.75,0,0,0,29.11,31h3.37A11,11,0,0,1,27.71,34.34Z"/><path class="cls-2" d="M48,27V21l-4.62-1.85a19.53,19.53,0,0,0-2.25-5.43l2-4.57L38.85,4.91l-4.57,2a19.53,19.53,0,0,0-5.43-2.25L27,0H21L19.15,4.62a19.53,19.53,0,0,0-5.43,2.25l-4.57-2L4.91,9.15l2,4.57a19.53,19.53,0,0,0-2.25,5.43L0,21v6l4.62,1.85a19.53,19.53,0,0,0,2.25,5.43l-2,4.57,4.24,4.24,4.57-2a19.53,19.53,0,0,0,5.43,2.25L21,48h6l1.85-4.62a19.53,19.53,0,0,0,5.43-2.25l4.57,2,4.24-4.24-2-4.57a19.53,19.53,0,0,0,2.25-5.43ZM24,40A16,16,0,1,1,40,24,16,16,0,0,1,24,40Z"/></g></svg>