<svg xmlns="http://www.w3.org/2000/svg" viewBox="0 0 48 48"><defs><style>.cls-1{fill:#42a5f5;}.cls-2{fill:#424242;}</style></defs><title>infected computer</title><g id="infected_computer" data-name="infected computer"><path class="cls-1" d="M35,3,22.32,3,19.63.29C19.23-.11,19.39,0,13,0a3,3,0,0,0-3,3V21a3,3,0,0,0,3,3H23V22H13a1,1,0,0,1-1-1V9H36V21a1,1,0,0,1-1,1H33v2h2a3,3,0,0,0,3-3V6A3,3,0,0,0,35,3Z"/><path class="cls-2" d="M25,13H19a1,1,0,0,0,0,2h4v2H19a1,1,0,0,0,0,2h5a1,1,0,0,1,1,1v8a3,3,0,0,0,6,0V19A6,6,0,0,0,25,13Zm2,8h2v3H27Zm2-2H26.82A3,3,0,0,0,25,17.18V15A4,4,0,0,1,29,19Zm-2,9V26h2v2A1,1,0,0,1,27,28Z"/><path class="cls-1" d="M18,38H30a0,0,0,0,1,0,0v2a2,2,0,0,1-2,2H20a2,2,0,0,1-2-2V38A0,0,0,0,1,18,38Z"/><path class="cls-2" d="M47,38H46V8a3,3,0,0,0-3-3H39.9A9.34,9.34,0,0,1,40,7h3a1,1,0,0,1,1,1V38H32v2H46v4a2,2,0,0,1-2,2H4a2,2,0,0,1-2-2V40H16V38H4V8A1,1,0,0,1,5,7H8V5H5A3,3,0,0,0,2,8V38H1a1,1,0,0,0-1,1v5a4,4,0,0,0,4,4H44a4,4,0,0,0,4-4V39A1,1,0,0,0,47,38Z"/><path class="cls-2" d="M41,9H40V34H8V9H7a1,1,0,0,0-1,1V35a1,1,0,0,0,1,1H41a1,1,0,0,0,1-1V10A1,1,0,0,0,41,9Z"/><path class="cls-1" d="M18,19V13a1,1,0,0,1,2,0v6A1,1,0,0,1,18,19Z"/></g></svg>